<svg width="240" height="240" fill="none" xmlns="http://www.w3.org/2000/svg"><path opacity=".3" d="M37 224c19 0 34-4 34-7 0-4-15-7-34-7s-34 3-34 7c0 3 15 7 34 7z" fill="#575FA8"/><path d="M41 205l-1 11h21l-12-7-1-4h-7z" fill="#F08789"/><path d="M47 114l2 94h-9s-8-37-4-48l-8-46h19z" fill="#32388D"/><path opacity=".2" d="M47 114H28l8 46c-2 4-1 11-1 18l13 16-1-80z" fill="#020203"/><path d="M19 206l-3 12h22l-13-8 1-4h-7z" fill="#F08789"/><path d="M48 113l-8 47-14 48h-8s3-46 11-51l-6-44h25z" fill="#32388D"/><path opacity=".2" d="M47 116l1-3H23v4l24 3v-4z" fill="#020203"/><path d="M61 80s5-8 12-10l-3 4s2 4 0 6-5 2-5 2l-2 2-2-4z" fill="#F5ABAE"/><path d="M41 74l7 14 13-9 3 5s-11 21-16 20c-5-2-10-13-10-13l3-17z" fill="#fff"/><path opacity=".2" d="M48 88l-7-14-3 17s5 11 10 13l6-21-6 5z" fill="#020203"/><path d="M46 41l2 9h-2s0 7-2 7l-4 1-2 7-9-1 1-8s-5-6-3-13c1-8 18-9 19-2z" fill="#F5ABAE"/><path opacity=".2" d="M35 53l-7-1 2 4-1 8 9 1 2-7h1c-3-1-6-5-6-5z" fill="#020203"/><path d="M46 43s-1 1-5-1c0 0-3 5-5 4l-1 3-2-3c-1 0-2 1-1 4s3 3 3 3l-5 3s-4-1-4-4c0 0-5-5-2-8 0 0-4-3 4-7 0 0 2-6 5-3 0 0 7-5 8-1 0 0 9 0 9 4 1 5-1 6-1 6s0 4-2 4l-1-4z" fill="#212226"/><path d="M23 73s-4-1-3-6c0-4 6-6 19-4 2 1 3 3 2 5 0 0 4 10 5 19 1 8 2 16 4 20 1 4 0 9-4 9H23c-5 0-5-6-4-13 2-7 5-25 4-30z" fill="#444496"/><path d="M33 71c8 1 3 15 1 20-1 4-3 7-1 10l7 7-3 6s-15-2-19-6c-3-5-1-15 2-22 3-6 8-17 13-15z" fill="#fff"/><path d="M37 115l-1-1 4-7 1-1v1l-4 8z" fill="#A77071"/><path d="M33 142l-2 2-2-2 2-2 2 2z" fill="#59BCAB"/><path d="M20 142a5 5 0 110-11 5 5 0 010 11zm0-8c-2 0-3 1-3 2s1 3 3 3l2-3-2-2z" fill="#FCC450"/><path d="M176 35h-2v2l-1 1-2-1v-2h-1l-2-1 2-2h1v-2l2-1 1 1v2h2l2 2-2 1z" fill="#59BCAB"/><path d="M191 26l-2 2a2 2 0 110-4c1 0 2 0 2 2zM80 74a45 45 0 0132-61l5 22a23 23 0 00-16 31l-21 8z" fill="#345185"/><path d="M90 89l-1-1 16-15c4 4 10 7 17 7a23 23 0 0010-43l10-20 12 8a45 45 0 01-64 64z" fill="#fff"/><path d="M122 35h-5l-5-22c10-2 20-1 30 4l-10 20c-3-2-7-2-10-2z" fill="#59BCAB"/><path d="M89 88c-4-4-7-9-9-14l21-8 4 7-16 15z" fill="#C1E4EE"/><path d="M224 47v151c0 3-2 5-4 5h-97c-2 0-4-2-4-5V47c0-2 2-4 4-4h97c2 0 4 2 4 4z" fill="#4FBECB"/><path d="M108 207h127l2-2-2-2H108l-2 2 2 2z" fill="#E2E2E1"/><path d="M224 47v11H119V47c0-2 2-4 4-4h97c2 0 4 2 4 4z" fill="#4FBECB"/><path d="M172 199c-3 0-5-2-5-5 0-2 2-4 5-4 2 0 4 2 4 4 0 3-2 5-4 5zM131 52a2 2 0 112-2l-2 2zM137 52a2 2 0 11-1-3 2 2 0 011 3z" fill="#E6F2EA"/><path d="M223 58H120v127h103V58z" fill="#D2EBF7"/><path d="M139 101V86h-34v15h34zM159 139v-15h-34v15h34zM149 120v-15h-34v15h34z" fill="#A9DAE5"/><path d="M217 64h-92v17h92V64z" fill="#EDF6F4"/><path d="M214 66h-12v12h12V66z" fill="#D2E8F2"/><path d="M158 67h-27v2h27v-2zM158 71h-27v2h27v-2zM149 75h-18v3h18v-3z" fill="#ACD8C8"/><path opacity=".5" d="M234 137h-75v35h75v-35z" fill="#96CEB8"/><path d="M196 149h-29v3h29v-3zM189 154h-22v3h22v-3zM182 160h-15v2h15v-2zM193 160h-9v2h9v-2zM187 165h-20v3h20v-3z" fill="#E6F2EA"/><path d="M152 145h-27v27h27v-27z" fill="#9FD2BA"/><path d="M145 164a8 8 0 10-12-11 8 8 0 0012 11z" fill="#7CC39E"/><path d="M145 158a6 6 0 01-5 7h-3a6 6 0 01-4-9 6 6 0 015-4h1a6 6 0 016 6z" fill="#EFF4F4"/><path d="M139 159l-1-1v-4h2v4l-1 1z" fill="#C1D6CF"/><path d="M139 159h-1l1-1 2-1h1v1l-3 1z" fill="#C1D6CF"/><path d="M217 86h-53v53h53V86z" fill="#98D5E9"/><path d="M190 115c-4 0-7-3-7-7v-4a7 7 0 0114 0v4c0 4-3 7-7 7z" fill="#F8FCFA"/><path d="M190 112c-6 0-12 3-14 9-2 3 1 7 4 7h20c4 0 6-4 5-7-3-6-8-9-15-9z" fill="#F8FCFA"/><path d="M217 178v-4h-92v4h92z" fill="#FFE1AB"/><path d="M224 84V68l2 2v12l-2 2zM224 102V86l2 2v12l-2 2z" fill="#4FBECB"/><path opacity=".3" d="M180 58l-60 60V86l28-28h32zM202 58l-82 82v-16l66-66h16z" fill="#F6FBFD"/><path opacity=".3" d="M142 150v14l-1 1v38h-18c-2 0-4-2-4-5v-76h18c2 0 4 1 4 3v24l1 1z" fill="#385F82"/><path d="M128 116v104c0 2-1 4-3 4H70c-2 0-3-2-3-4V116c0-2 1-4 3-4h55c2 0 3 2 3 4z" fill="#5BB98E"/><path d="M128 116v7H67v-7c0-2 1-4 3-4h55c2 0 3 2 3 4z" fill="#5BB98E"/><path d="M98 221c-2 0-3-2-3-3 0-2 1-3 3-3 1 0 3 1 3 3l-3 3zM87 119l-2-1 2-1 1 1-1 1zM104 118H91l1-1h12v1z" fill="#E6F2EA"/><path d="M127 123H68v89h59v-89z" fill="#D2EBF7"/><path d="M84 170H73v4h11v-4zM111 170h-11v4h11v-4zM97 170H87v4h10v-4zM123 176H79v12h44v-12z" fill="#EDF6F4"/><path d="M121 178h-9v9h9v-9z" fill="#D5EAE4"/><path d="M95 179H77v1h18v-1zM95 182H77v1h18v-1zM89 184H77v2h12v-2z" fill="#ACD8C8"/><path d="M105 191H73v15h32v-15z" fill="#EDF6F4"/><path d="M93 194H77v1h16v-1zM89 196H77v2h12v-2zM85 199h-8v2h8v-2z" fill="#FFE1AB"/><path d="M91 199h-5v2h5v-2z" fill="#ACD8C8"/><path d="M88 202H77v2h11v-2z" fill="#FFE1AB"/><path opacity=".5" d="M111 129H65v38h46v-38z" fill="#FFE1AB"/><path d="M92 160a12 12 0 100-24 12 12 0 000 24z" fill="#FCC450"/><path d="M101 148a9 9 0 01-6 8l-1 1h-1-4a9 9 0 013-18 9 9 0 019 9z" fill="#EFF4F4"/><path d="M92 149l-1-1v-6l1-1 1 1v6l-1 1z" fill="#C1D6CF"/><path d="M92 149h-1v-2l3-2 2 1v1l-3 2h-1z" fill="#C1D6CF"/><path opacity=".3" d="M109 123l-41 42v-22l19-20h22zM125 123l-57 57v-11l46-46h11z" fill="#F6FBFD"/><g opacity=".7"><path opacity=".7" d="M131 191h-23v23h23v-23z" fill="#9FD2BA"/><path opacity=".7" d="M119 204l-3-3v-2c0-2 2-3 3-3 2 0 3 1 3 3v2c0 1-1 3-3 3z" fill="#F8FCFA"/><path opacity=".7" d="M119 202c-3 0-5 2-6 4s0 3 2 3h8c2 0 3-1 2-3s-3-4-6-4z" fill="#F8FCFA"/></g><path d="M122 129h-7v45h7v-45z" fill="#9FD2BA"/><path d="M128 155v-16l1 1v14l-1 1z" fill="#5BB98E"/><path opacity=".3" d="M87 112l-6 17-13 38-1 4v-4h-2v-38h2v-13c0-2 1-4 3-4h17z" fill="#385F82"/><path d="M36 228h101l2-2c0-2-1-2-2-2H36c-1 0-2 0-2 2l2 2z" fill="#E2E2E1"/></svg>