<svg width="240" height="240" fill="none" xmlns="http://www.w3.org/2000/svg"><path d="M13 181l84 49h6l127-74c2-1 2-2 0-3l-83-49h-7L13 177v4z" fill="#AABAFD"/><path d="M112 186v2l21 12h3l41-23v-3l-21-12h-3l-41 24z" fill="#2E4277"/><path d="M12 179v5l1 2 84 48h6l127-73 2-2v-5l-2 2-127 74h-6l-84-49-1-2z" fill="#798FFE"/><path d="M140 7c2-1 3 0 3 2l1 89c0 2-2 5-4 6L15 176c-2 1-3 0-3-2V85c0-2 1-5 3-6L140 7z" fill="#1B2A4F"/><path d="M8 83l1 89 1 2 3 2-1-2V85c0-2 1-5 3-6L140 7h2l-3-2h-2L12 78c-2 1-4 3-4 5z" fill="#384E85"/><path d="M16 84v86l123-71V13L16 84z" fill="#384E85"/><path d="M16 84v14l123-70V13L16 84z" fill="#AABAFD"/><path d="M119 30l2 1-2 4c-2 1-3 0-3-1l3-4zM125 26c2 0 3 0 3 2 0 1-1 3-3 3-1 1-2 0-2-1l2-4zM132 22c1 0 2 0 2 2l-2 3c-1 1-2 0-2-1l2-4z" fill="#fff"/><path d="M39 175l-8 5-4-2 8-5 4 2zM125 125l-8 4-3-2 8-4 3 2zM147 112l-8 5-4-2 8-5 4 2zM132 141l-8 5-7-4 8-5 7 4zM172 139l-8 5-7-4 8-5 7 4zM183 133l-8 5-16-10 8-4 16 9zM156 117l-15 9-7-4 15-9 7 4zM138 128l-8 4-7-4 8-4 7 4zM165 123l-19 11-7-5 19-10 7 4zM143 135l-8 5-7-4 8-5 7 4zM152 140l-8 5-7-4 8-5 7 4zM127 134l-8 5-7-5 8-4 7 4zM114 131l-8 5-3-2 8-5 3 2zM104 137l-8 5-4-2 8-5 4 2zM109 165l-8 5-7-4 8-5 7 4zM93 144l-8 4-4-2 8-4 4 2zM106 146l-8 5-7-4 8-5 7 4zM82 150l-8 5-3-2 8-5 3 2zM95 153l-8 4-7-4 8-4 7 4zM111 154l-8 5-7-4 8-5 7 4zM71 156l-8 5-3-2 8-5 3 2zM84 159l-8 5-7-4 8-5 7 4zM120 159l-8 5-7-4 8-5 7 4zM100 160l-8 5-7-4 8-5 7 4zM61 162l-9 5-3-2 8-5 4 2zM74 165l-9 5-7-4 8-5 8 4zM89 167l-8 4-7-4 8-5 7 5zM63 172l-8 4-7-4 8-5 7 5zM98 172l-8 4-7-4 8-4 7 4zM78 173l-8 4-7-4 8-4 7 4zM87 178l-8 5-7-4 8-5 7 4zM129 164l-41 24-7-4 41-24 7 4zM77 184l-8 5-7-4 8-5 7 4zM68 179l-19 11-7-4 19-11 7 4zM66 191l-8 4-7-4 8-5 7 5zM86 189l-19 11-7-4 19-11 7 4zM50 169l-8 4-4-2 8-4 4 2zM136 119l-8 4-3-2 8-4 3 2zM117 140l-8 5-7-4 8-5 7 4zM140 158l-8 5-8-4 9-5 7 4zM131 153l-8 5-8-5 9-4 7 4zM122 148l-8 4-8-4 9-4 7 4zM161 146l-8 4-7-4 8-5 7 5zM150 152l-8 4-7-4 8-4 7 4zM52 178l-12 7-7-4 12-7 7 4z" fill="#384E85"/><path d="M28 107h3l-1 1h-2c-2 1-3 3-3 6 0 2 1 3 3 2l2-3h1l-3 4c-3 1-5 0-5-3s2-6 5-7zM33 111l1 1-1 2-1-1 1-2zM34 105v-2l-1 1v2l1-1zM36 98l5 12h-2l-4-12h1zM45 92l7 4-7 13-2-1 7-11-7-3 2-2zM60 96v3l-8 5v-4l8-4z" fill="#D9DDF6"/></svg>