<svg width="240" height="240" fill="none" xmlns="http://www.w3.org/2000/svg"><path d="M90 47c-5 2-23 10-33 30-2 4-12 23-5 41 10 22 40 17 54 38 12 19-13 37-2 59 5 12 18 21 30 22 37 3 103-76 76-139-20-45-82-66-120-51z" fill="url(#paint0_linear)"/><path d="M165 83L97 58c-2-1-4 0-5 2L46 183c0 2 1 5 3 5l67 26c2 0 5-1 5-3l46-123c1-2 0-4-2-5z" fill="#2D548D"/><path opacity=".1" d="M124 146h-5c-26-1-48-13-57-31-16-29-1-70 23-82 11-7 21-7 28-5 11 2 19 7 23 14 4 8 2 15-1 22-2 7-4 14-1 21 2 7 8 9 14 11 7 2 13 5 17 12 3 8 3 18-1 24-6 9-22 14-40 14zM106 27c-6 0-13 2-21 6-23 13-38 53-23 81 10 18 31 30 57 31 20 2 38-4 44-13 4-6 5-16 1-24-3-7-10-9-16-11-6-3-12-5-15-12-2-7 0-14 2-21s4-14 0-22c-3-7-11-12-22-14l-7-1z" fill="#AAAAD5"/><path opacity=".2" d="M148 77l-7 5-66 44-10 7 14-39 11-7 23-15 8-5 27 10zM163 82l-7 5-88 60-11 7 5-14 11-7 73-49 8-5 9 3z" fill="#EEEDF3"/><path d="M165 83l-2-1-9-3-6-2-27-10-24-9c-2-1-4 0-5 2L79 94l-14 39-3 7-5 14-11 29v2l3 4 12 4 10 4 25 9 9 3 11 5c2 0 5-1 5-3l45-121 1-2c1-2 0-4-2-5zm-7 8v2l-39 104c-1 2-2 2-3 2l-8-3-11-4-21-8-10-4-7-3-2-1v-1l11-28 5-14 3-7 14-39 7-19c1-1 2-2 3-1l13 5 28 10 5 2 10 3 1 1c1 0 2 2 1 3z" fill="#EEEDF3"/><path d="M81 196c-2-1-3-3-3-5 1-2 3-3 5-2s3 3 2 5c0 2-3 3-4 2z" fill="#C9C7D9"/><path opacity=".1" d="M126 10L31 42c-2 0-3 3-2 5l9 28c1 2 3 3 5 3l10-4 4-1 5 3c1 1 3 1 3-1l3-5 23-8 47-16c2 0 3-3 3-5l-10-28c0-2-3-3-5-3z" fill="#3F3F3F"/><path d="M126 3L24 37c-2 0-3 3-2 6l9 29c1 3 4 4 6 3l10-3 5-2 6 4c1 1 2 0 3-1l2-6 25-9 51-16c2-1 3-4 3-6L132 6c-1-2-4-4-6-3z" fill="url(#paint1_linear)"/><path d="M50 51l1-5-1-2c-1-3-4-4-7-3-2 0-4 3-3 6l1 3 3 3c-3 2-5 6-5 9 0 2 2 3 3 2l16-5c1-1 2-2 1-3-2-4-5-5-9-5zM88 26l-20 6c-2 1-2 3-2 4l3 10c1 2 3 3 4 2h2l5 3 3-1 2-6 9-3 2-3-4-10c0-2-2-3-4-2z" fill="#fff"/><path d="M72 37l-2-1 1-2 16-5 2 1-1 1-16 6zM73 41l-2-1 1-1 17-6 1 1v2l-17 5zM74 45h-1l1-2 7-2h2l-1 2-7 2h-1z" fill="#E2E1E1"/><path d="M130 30c0-2-2-3-3-5l-1-2c-1-3-5-5-8-5v-1h-2l-1 1v1c-3 2-5 5-3 9v8l1 1 1 1 3-1h1a8 8 0 009-3v-1l3-1 1-1-1-1z" fill="#fff"/><path d="M115 36c1 2 0 5-3 5-2 1-4 0-5-2 0-2 1-5 3-5 2-1 4 0 5 2z" fill="#E83C3B"/><path opacity=".1" d="M228 90l-26-3-2 2-3 26 1 2 26 3 3-2 3-26-2-2z" fill="#3F3F3F"/><path d="M231 116l-30-3-1-1 3-31h2l30 3 1 1-4 31h-1z" fill="#F8AA09"/><path d="M203 109l3-25h1l25 3-3 26-25-3-1-1z" fill="#FBBA38"/><path d="M218 101l-3 2h-3l-4 3v2h1l10 1 6 1 1-2-6-7h-2zM213 96l-2 2-2-3 2-2 2 3z" fill="#EE9F05"/><path opacity=".1" d="M64 164c-1-4-4-5-7-4l-39 12c-3 1-5 4-4 7l8 25c1 3 5 5 8 4l4-1 9 6c2 1 4 0 5-1l4-11 16-5c3-1 5-4 4-8l-8-24z" fill="#3F3F3F"/><path d="M50 154L9 167c-3 1-5 5-4 8l8 27c1 3 5 5 8 4l4-1 10 6c2 1 5 1 6-1l4-12 17-5c4-1 5-5 4-8l-8-27c-1-3-5-5-8-4z" fill="url(#paint2_linear)"/><path d="M50 168l-33 10c-1 1-2 0-3-1l2-3 33-10 2 1c1 1 0 2-1 3zM53 177l-33 11c-1 0-2 0-3-2 0-1 0-2 2-2l33-11 2 2c1 1 0 2-1 2zM38 192l-15 5-3-1c0-1 0-2 2-3l15-5 2 2-1 2z" fill="#EDB7D5"/><path opacity=".1" d="M134 107c-1-2-4-2-5 0l-5 8-3-12c-1-3-4-4-6-4l-34 8c-2 1-4 4-3 6l8 34c0 2 3 4 5 3l34-8c3 0 4-3 4-5l-3-13 8 6c2 1 5-1 4-3l-4-20z" fill="#3F3F3F"/><path d="M133 97l-6 10-3-14c-1-2-3-4-6-3l-36 8c-3 1-5 4-4 6l9 37c0 2 3 4 6 3l36-8c3-1 4-4 4-6l-3-14 9 6c2 2 5-1 4-3l-5-21c0-2-4-3-5-1z" fill="#E83B5B"/><path d="M99 107l13 8-8 14" fill="#fff"/><path d="M158 160l-55 9 5 31 55-9-5-31z" fill="#E83C3B"/><path d="M133 180l25-20-55 9 30 11z" fill="#EE7375"/><path d="M169 214h32l2-2-2-2h-32l-2 2 2 2z" fill="#E2E2E1"/><path d="M180 206l-2-9 4-1 1 10h-3z" fill="#D7DDE9"/><path d="M183 205h1l8 4c2 0 2 1-1 1h-12c-3 0-2-4-1-5l1-1 4 1z" fill="#ED9558"/><path d="M166 198l6-8 4 3-7 7-3-2z" fill="#D7DDE9"/><path d="M170 199v1l3 8c2 2 1 2-2 1-3-2-4-5-5-6l-3-3c-2-2 1-4 3-5l2 1 2 3z" fill="#ED9558"/><path d="M164 43s-1 8 1 11l2 4" fill="#ED8C61"/><path d="M169 62a4 4 0 01-5-2l-2-4c-2-2-2-5-2-8v-5a4 4 0 018 1 23 23 0 000 7v1l3 4c1 2 0 4-2 6z" fill="#F6AD86"/><path d="M155 104c1-11-3-39-5-50 0-1 1-3 3-3h23l2 2c3 10 5 51 5 51h-28z" fill="#E8E8E8"/><path d="M193 81l-6-13-8-15c-1-2-3-2-4-1-2 1-3 3-2 4l7 13 6 10c-2 2-6 2-10 2-1 0-4-1-7 2-1 1-2 2-2 5 0 2 1 2 2 3l2 1c2-1 2-2 2-4l1-3 10 2c4 1 6 0 8-2l1-4z" fill="#F6AD86"/><path d="M156 123s-3-7-1-19h28l-1 19h-26z" fill="#3A63A9"/><path d="M187 68l-3 1h-4l-7-13a3 3 0 016-3l8 15z" fill="#ED8C61"/><path d="M156 54c-1-2-2-3-4-3l-18 6c-8 4-8 6-8 8 0 1 0 4 19 11l-1 4c-1 1 0 3 1 4l2 2 3-3v-8-1h-1-1l-15-9 4-2 16-5c2-1 3-2 3-4z" fill="#F6AD86"/><path d="M188 67h-5l-3 1-3 1-5-12c0-3 0-4 2-5s5-1 6 1l8 14z" fill="#E8E8E8"/><path d="M200 159l-4 10-14 18-8 9-2 3-4-5 5-8 9-15v-1l6-12c1-5-7-20-14-34l-2-4-1-2c0-2 2-5 4-6 3-2 6-2 8 0 3 6 18 35 17 47z" fill="#3A63A9"/><path d="M182 187l-8 9-1-8v-2l9-15v16z" fill="#2D548D"/><path d="M181 161c-1-11-10-41-12-44-1-3-8-4-10-3-3 2-5 5-3 8 3 8 14 31 15 39l3 23 3 15 1 4 6-1s-1-28-3-41z" fill="#3A63A9"/><path d="M153 58l-16 5-3-6 18-6c2 0 3 1 4 3 0 2-1 3-3 4z" fill="#ED8C61"/><path d="M152 51c2 0 3 1 4 3s-1 4-3 5l-12 5-6-8 17-5z" fill="#E8E8E8"/><path d="M168 51h-1c-3 0-5-1-7-3v-5a4 4 0 018 1 23 23 0 000 7z" fill="#ED8C61"/><path d="M179 37c-2 7-6 12-13 12s-11-5-12-12 5-13 12-13 14 6 13 13z" fill="#F6AD86"/><path d="M180 203l-7-41c-1-8-11-32-14-40a34 34 0 001 0l-1-1v1c4 8 14 32 15 40l6 40v1z" fill="#658BC1"/><path d="M171 51c0 2-1 5-5 5s-8-2-9-4v-1h14z" fill="#C8D6DB"/><path d="M158 51c1 2 5 4 8 4s4-2 4-4h-12z" fill="#F6AD86"/><path d="M175 86l-2-5 2-1 2 6h-2z" fill="#82AACE"/><path d="M173 80l3 1v2l-3-1v-2z" fill="#4E7DB0"/><path d="M178 28c-3-6-13-7-14-7l-4 2v-1l-1 2-1-2 1 2c-3 1-6 5-5 12 0 3 8 1 10-3 1 3 4 3 4 3l-3-4c4 3 9 5 10 7v-4s3 0 4 4c0-1 3-5-1-11z" fill="#424344"/><path d="M169 104l3 19-3-19zM172 119l1-1 1-2-2-12 2 12v2l-2 1z" fill="#658BC1"/><path d="M153 36l1 4h3l1-4c1-1 0-3-2-2l-3 2z" fill="#F6AD86"/><defs><linearGradient id="paint0_linear" x1="224.6" y1="216.3" x2="-13.2" y2="-2.2" gradientUnits="userSpaceOnUse"><stop stop-color="#6FC7DA"/><stop offset=".4" stop-color="#0D71B9"/><stop offset=".8" stop-color="#9E1460"/><stop offset="1" stop-color="#E7267A"/></linearGradient><linearGradient id="paint1_linear" x1="124.6" y1="84.7" x2="21.5" y2="-24.6" gradientUnits="userSpaceOnUse"><stop stop-color="#6FC7DA"/><stop offset="1" stop-color="#9E1460"/></linearGradient><linearGradient id="paint2_linear" x1="75.5" y1="186.1" x2="16.9" y2="179.7" gradientUnits="userSpaceOnUse"><stop stop-color="#6FC7DA"/><stop offset=".7" stop-color="#9E1460"/><stop offset="1" stop-color="#E7267A"/></linearGradient></defs></svg>